{
    "asset" : {
        "generator" : "Khronos glTF Blender I/O v1.8.19",
        "version" : "2.0"
    },
    "scene" : 0,
    "scenes" : [
        {
            "name" : "Scene",
            "nodes" : [
                0
            ]
        }
    ],
    "nodes" : [
        {
            "mesh" : 0,
            "name" : "Curve",
            "scale" : [
                17.212392807006836,
                17.212392807006836,
                17.212392807006836
            ]
        }
    ],
    "materials" : [
        {
            "doubleSided" : true,
            "name" : "Material.001",
            "pbrMetallicRoughness" : {
                "baseColorFactor" : [
                    0,
                    0,
                    0,
                    1
                ],
                "metallicFactor" : 0,
                "roughnessFactor" : 0.5
            }
        }
    ],
    "meshes" : [
        {
            "name" : "Mesh",
            "primitives" : [
                {
                    "attributes" : {
                        "POSITION" : 0,
                        "NORMAL" : 1
                    },
                    "indices" : 2,
                    "material" : 0
                }
            ]
        }
    ],
    "accessors" : [
        {
            "bufferView" : 0,
            "componentType" : 5126,
            "count" : 1834,
            "max" : [
                0.11309602856636047,
                0.006076049990952015,
                -0.00018435032689012587
            ],
            "min" : [
                0.00020474624761845917,
                0,
                -0.040152307599782944
            ],
            "type" : "VEC3"
        },
        {
            "bufferView" : 1,
            "componentType" : 5126,
            "count" : 1834,
            "type" : "VEC3"
        },
        {
            "bufferView" : 2,
            "componentType" : 5123,
            "count" : 3582,
            "type" : "SCALAR"
        }
    ],
    "bufferViews" : [
        {
            "buffer" : 0,
            "byteLength" : 22008,
            "byteOffset" : 0
        },
        {
            "buffer" : 0,
            "byteLength" : 22008,
            "byteOffset" : 22008
        },
        {
            "buffer" : 0,
            "byteLength" : 7164,
            "byteOffset" : 44016
        }
    ],
    "buffers" : [
        {
            "byteLength" : 51180,
            "uri" : "iso.bin"
        }
    ]
}
