<svg width="67" height="67" viewBox="0 0 67 67" fill="none" xmlns="http://www.w3.org/2000/svg">
<path fill-rule="evenodd" clip-rule="evenodd" d="M26.7197 29.3223C27.6098 29.3223 28.3592 29.0306 28.9668 28.4449C29.5766 27.8593 29.8793 27.1441 29.8793 26.3014C29.8793 24.1008 28.8261 23 26.7197 23C24.6133 23 23.5612 24.0539 23.5612 26.1617C23.5612 28.2695 24.6144 29.3223 26.7197 29.3223ZM61.0856 31.5698C60.4691 30.9528 59.4706 30.9528 58.8541 31.5698C53.8907 36.5364 46.6635 39.4466 38.5037 39.7618C38.4527 39.7642 38.4035 39.7725 38.3548 39.7807C38.3363 39.7838 38.3178 39.7869 38.2993 39.7897C36.8854 39.8534 34.8627 39.9249 33.1025 39.7819C33.0901 39.7803 33.0783 39.7773 33.0666 39.7743C33.0532 39.7709 33.0398 39.7674 33.0255 39.7662C25.4386 39.0879 18.7866 36.0849 13.7864 31.0825C13.7462 31.0423 13.7048 31.0054 13.6624 30.9707C14.1985 29.8364 14.4755 28.4673 14.4755 26.877C14.4755 26.1483 13.8835 25.556 13.1542 25.556C12.4249 25.556 11.833 26.1483 11.833 26.877C11.833 30.5248 10.0828 32.2224 6.32125 32.2224C5.59194 32.2224 5 32.8148 5 33.5446C5 34.2744 5.59194 34.8667 6.32125 34.8667C8.52594 34.8667 10.314 34.366 11.6487 33.4071C17.0431 38.7604 24.1297 42.0137 32.1822 42.8508C32.1954 42.8536 32.2086 42.8572 32.2219 42.8609L32.2219 42.8609C32.2412 42.8662 32.2607 42.8716 32.2805 42.8743C32.3006 42.8776 32.3219 42.8799 32.3431 42.881C34.5277 43.1112 38.5685 43.0363 39.6518 42.8631C39.6603 42.8618 39.6679 42.8594 39.6757 42.8569C39.6814 42.8552 39.6871 42.8533 39.6932 42.8519C48.2137 42.2976 55.7805 39.1102 61.0867 33.7994C61.7032 33.1825 61.7032 32.1833 61.0867 31.5664L61.0856 31.5698ZM48.6984 26.1617C48.6984 28.2684 47.6452 29.3223 45.5399 29.3223C44.6498 29.3223 43.9004 29.0306 43.2928 28.4449C42.6841 27.8593 42.3803 27.1441 42.3803 26.3025C42.3803 24.1008 43.4347 23 45.5399 23C47.6452 23 48.6984 24.055 48.6984 26.1617Z" fill="black"/>
</svg>
