<svg width="101" height="39" viewBox="0 0 101 39" fill="none" xmlns="http://www.w3.org/2000/svg">
<path fill-rule="evenodd" clip-rule="evenodd" d="M17.9424 1.14235C17.7405 1.20305 17.6137 1.31601 17.5637 1.47955H17.562C17.512 1.64309 17.4869 2.12359 17.4869 2.91936V19.2142C17.4869 20.1938 17.537 20.7653 17.6371 20.9289C17.8356 21.1548 18.4145 21.2661 19.3721 21.2661C19.6907 21.2256 19.8509 21.3065 19.8509 21.5105C19.8509 21.6943 19.659 21.7853 19.2787 21.7853H12.6923C12.2919 21.7853 12.0917 21.7027 12.0917 21.5409C12.0917 21.379 12.5605 21.2661 13.4981 21.2054C13.9969 21.1649 14.2855 21.0789 14.3656 20.9457C14.4457 20.8125 14.4857 20.3388 14.4857 19.5244V10.6057H5.36357V19.2732C5.36357 20.1921 5.43364 20.7333 5.57544 20.8968C5.71725 21.0604 6.19104 21.1733 7.00015 21.234C7.52399 21.2762 7.78758 21.3672 7.78758 21.5105C7.78758 21.6943 7.58572 21.7853 7.182 21.7853H0.605646C0.201923 21.7853 6.10352e-05 21.7027 6.10352e-05 21.5409C6.10352e-05 21.379 0.201923 21.2779 0.605646 21.2357C0.869234 21.2155 1.14116 21.1952 1.42477 21.175C1.86853 21.1345 2.15047 21.0334 2.27225 20.8699C2.33398 20.767 2.36401 20.1971 2.36401 19.1569V3.00872C2.36401 2.08987 2.31897 1.55036 2.22721 1.38682C2.13712 1.22497 1.81848 1.13224 1.27296 1.11201C0.647353 1.06986 0.276995 1.03782 0.166889 1.01591C0.0551142 0.995674 6.10352e-05 0.908004 6.10352e-05 0.757953C6.10352e-05 0.585984 0.131855 0.5 0.393775 0.5C0.47552 0.5 0.647353 0.510116 0.909272 0.530347C1.41476 0.572497 2.60591 0.591042 4.48439 0.591042C5.51539 0.591042 6.23275 0.575868 6.63647 0.545521C6.77827 0.515174 6.96011 0.5 7.182 0.5C7.54568 0.5 7.72752 0.601158 7.72752 0.806846C7.72752 0.992302 7.40054 1.08334 6.74324 1.08334C6.08594 1.08334 5.69222 1.1609 5.56043 1.31432C5.42864 1.46774 5.36357 1.95499 5.36357 2.77437V9.84194H14.4857V3.23464C14.4857 2.14888 14.4056 1.50989 14.2438 1.31432C14.082 1.12044 13.5164 1.03277 12.5472 1.053C12.2435 1.053 12.0917 0.960269 12.0917 0.776499C12.0917 0.592728 12.2636 0.5 12.6072 0.5H19.2153C19.639 0.5 19.8509 0.591042 19.8509 0.774813C19.8509 0.958583 19.4071 1.06143 18.5179 1.08166C18.256 1.08166 18.0642 1.10189 17.9424 1.14235ZM33.5808 20.2258C33.6826 20.2258 33.7326 20.2865 33.7326 20.4096H33.7309C33.7309 20.7569 33.3739 21.1194 32.6599 21.497C31.9459 21.8747 31.2569 22.0635 30.5946 22.0635C29.2082 22.0635 28.4842 21.3385 28.4241 19.8886C27.6601 21.3992 26.4739 22.1546 24.8657 22.1546C24.0015 22.1546 23.2875 21.8949 22.7253 21.374C22.1631 20.853 21.8812 20.1853 21.8812 19.3677C21.8812 17.6935 22.8721 16.3649 24.854 15.3854C25.5347 15.06 26.7158 14.7329 28.3975 14.4059V13.6404C28.3975 11.8449 28.3057 10.6596 28.1239 10.0881C27.8002 9.04785 27.0728 8.52689 25.9418 8.52689C25.2344 8.52689 24.6422 8.72077 24.1684 9.10855C23.6929 9.49632 23.456 9.98694 23.456 10.5787C23.456 10.7422 23.5828 10.8232 23.8347 10.8232C24.0866 10.8232 24.3152 10.9463 24.517 11.1907C24.7189 11.4369 24.8207 11.7117 24.8207 12.0185C24.8207 12.9171 24.3769 13.3656 23.4877 13.3656C23.0223 13.3656 22.6386 13.2088 22.3349 12.8919C22.033 12.5749 21.8812 12.1719 21.8812 11.6813C21.8812 10.7203 22.2549 9.89421 23.0022 9.19959C23.8297 8.44428 24.9825 8.06662 26.4572 8.06662C28.6794 8.06662 30.0424 8.67863 30.5479 9.90432C30.7297 10.3747 30.8215 11.3037 30.8215 12.6912V18.4185C30.8215 19.3575 30.8315 19.9088 30.8515 20.0724C30.9533 20.8075 31.2452 21.175 31.7307 21.175C32.2962 21.175 32.7617 20.971 33.1254 20.563C33.3272 20.3388 33.479 20.2258 33.5808 20.2258ZM28.2189 19.307C28.3391 19.0827 28.3991 18.3679 28.3991 17.1624V14.9285C26.906 15.2758 25.835 15.7293 25.1877 16.2908C24.5404 16.8522 24.2168 17.6024 24.2168 18.5415C24.2168 19.1957 24.4003 19.7318 24.769 20.1499C25.1376 20.5681 25.6014 20.7771 26.1586 20.7771C27.0145 20.7771 27.7018 20.2865 28.2189 19.307ZM40.6726 8.06493C39.278 8.06493 38.2069 8.60613 37.4595 9.68852C37.4395 8.91298 37.4045 8.44765 37.3528 8.29423C37.3027 8.1408 37.196 8.06493 37.0341 8.06493C36.8923 8.06493 36.6905 8.14755 36.4286 8.3094C35.5193 8.86071 34.5084 9.12709 33.3973 9.10518C32.9535 9.10518 32.73 9.20296 32.73 9.39853C32.73 9.55027 32.8217 9.62614 33.0036 9.62614H34.2765C34.822 9.58568 35.0939 9.85037 35.0939 10.4219V25.6749C35.0939 27.4316 35.0839 28.3707 35.0639 28.4938C35.0239 28.7585 34.7102 28.8917 34.1247 28.8917H33.2155C32.9735 28.8917 32.8518 28.9895 32.8518 29.185C32.8518 29.3368 33.1454 29.4126 33.7309 29.4126H39.6717C39.9336 29.4126 40.0654 29.3401 40.0654 29.1985C40.0654 29.0148 39.9419 28.9237 39.6967 28.9237C38.8159 28.9237 38.2236 28.8934 37.9167 28.831C37.7532 28.7703 37.6547 28.6978 37.6247 28.6169C37.5947 28.5343 37.5797 28.2696 37.5797 27.8211V20.6844C38.3087 21.6639 39.343 22.1546 40.681 22.1546C42.3843 22.1546 43.8073 21.4701 44.9534 20.1027C46.0979 18.7354 46.6718 17.0292 46.6718 14.9875C46.6718 12.9458 46.1112 11.307 44.9902 10.0105C43.8691 8.71403 42.4293 8.06493 40.671 8.06493H40.6726ZM42.758 20.2831C42.2308 21.1834 41.4384 21.6353 40.3824 21.6353C39.4481 21.6353 38.6874 21.2155 38.0985 20.3759C37.8749 20.069 37.7432 19.7672 37.7031 19.4705C37.6614 19.1738 37.6314 18.2988 37.6114 16.8454C37.5513 13.9591 37.5396 12.0657 37.5813 11.1654C37.6214 10.4489 37.895 9.84026 38.4038 9.33784C38.9109 8.83711 39.5199 8.5859 40.2306 8.5859C41.5902 8.5859 42.5962 9.36313 43.2451 10.9193C43.7323 12.0455 43.9758 13.4061 43.9758 15.0027C43.9758 17.1523 43.5688 18.9124 42.758 20.2831ZM59.7761 20.1027C58.63 21.4701 57.2069 22.1546 55.5036 22.1546H55.502C54.164 22.1546 53.1297 21.6639 52.4006 20.6844V27.8211C52.4006 28.2696 52.4156 28.5343 52.4473 28.6169C52.4774 28.6978 52.5758 28.7703 52.7393 28.831C53.0462 28.8934 53.6385 28.9237 54.5193 28.9237C54.7646 28.9237 54.888 29.0148 54.888 29.1985C54.888 29.3401 54.7562 29.4126 54.4943 29.4126H48.5536C47.968 29.4126 47.6744 29.3368 47.6744 29.185C47.6744 28.9895 47.7962 28.8917 48.0381 28.8917H48.9473C49.5329 28.8917 49.8465 28.7585 49.8865 28.4938C49.9066 28.3707 49.9166 27.4316 49.9166 25.6749V10.4219C49.9166 9.85037 49.6446 9.58568 49.0991 9.62614H47.8262C47.6427 9.62614 47.5526 9.55027 47.5526 9.39853C47.5526 9.20296 47.7745 9.10518 48.2199 9.10518C49.331 9.12709 50.342 8.86071 51.2512 8.3094C51.5131 8.14755 51.715 8.06493 51.8568 8.06493C52.0169 8.06493 52.1237 8.1408 52.1737 8.29423C52.2255 8.44765 52.2605 8.91298 52.2805 9.68852C53.0279 8.60613 54.0989 8.06493 55.4936 8.06493C57.252 8.06493 58.6917 8.71403 59.8128 10.0105C60.9339 11.307 61.4944 12.9458 61.4944 14.9875C61.4944 17.0292 60.9205 18.7354 59.7761 20.1027ZM53.2248 9.33784C52.7159 9.84026 52.444 10.4489 52.4023 11.1654C52.3606 12.0657 52.3723 13.9591 52.4323 16.8454C52.454 18.2988 52.484 19.1738 52.5241 19.4705C52.5641 19.7672 52.6959 20.069 52.9195 20.3759C53.5084 21.2155 54.2691 21.6353 55.2033 21.6353C56.2593 21.6353 57.0501 21.1834 57.579 20.2831C58.3897 18.9124 58.7968 17.1523 58.7968 15.0027C58.7968 13.4061 58.5532 12.0455 58.0661 10.9193C57.4171 9.36313 56.4112 8.5859 55.0515 8.5859C54.3408 8.5859 53.7319 8.83711 53.2248 9.33784ZM80.2993 10.1168C79.1365 11.4858 78.5559 13.1903 78.5559 15.232C78.5559 17.2737 79.1665 18.8366 80.3893 20.1634C81.6122 21.4903 83.132 22.1546 84.9504 22.1546C86.4052 22.1546 87.5663 21.7061 88.4354 20.8075C88.7591 20.4804 89.0761 20.0572 89.3897 19.5363C89.7033 19.0153 89.8602 18.6528 89.8602 18.4488C89.8602 18.3072 89.7784 18.2347 89.6183 18.2347C89.4765 18.2347 89.3647 18.3173 89.2846 18.4792C88.7191 19.5211 88.1935 20.2241 87.7081 20.5934C87.2226 20.9609 86.577 21.1447 85.7679 21.1447C84.3532 21.1447 83.2571 20.59 82.4797 19.4823C81.7023 18.3729 81.3136 16.7915 81.3136 14.7363C81.3136 14.126 81.3636 13.4853 81.4654 12.8126C83.7493 12.7519 84.9604 12.7216 85.1022 12.7216H87.2243C88.2953 12.7418 89.1545 12.7013 89.8001 12.5985C89.74 11.2716 89.2245 10.1842 88.2553 9.33615C87.286 8.48811 86.0832 8.06493 84.6485 8.06493C82.9101 8.06493 81.4604 8.74944 80.2993 10.1168ZM84.6184 8.52352C86.275 8.52352 87.1442 9.74921 87.2243 12.1989H81.5571C81.9609 9.74921 82.9818 8.52352 84.6184 8.52352ZM92.7863 9.67503C92.4527 9.49969 91.9222 9.4019 91.1948 9.38167V9.38336C90.9529 9.38336 90.8311 9.31086 90.8311 9.16924C90.8311 9.02762 90.9329 8.95512 91.1347 8.95512H91.3466C91.6502 8.95512 91.9522 8.97029 92.2558 9.00064C92.5594 9.03099 92.6896 9.04616 92.6495 9.04616C93.3969 9.04616 94.2261 8.83205 95.1353 8.40381L95.529 8.22004L95.7709 8.12731C95.8526 8.61793 95.8927 9.10686 95.8927 9.59747V10.2095C96.5383 8.82193 97.4492 8.12731 98.6203 8.12731C99.2676 8.12731 99.8031 8.32625 100.227 8.72414C100.652 9.12203 100.864 9.61771 100.864 10.2095C100.864 10.6782 100.724 11.066 100.44 11.3728C100.157 11.6796 99.7931 11.8331 99.3493 11.8331C98.9857 11.8331 98.682 11.7252 98.4401 11.511C98.1982 11.2969 98.0764 11.0272 98.0764 10.7001C98.0764 10.4152 98.1665 10.169 98.3484 9.96501C98.5319 9.76101 98.622 9.61939 98.622 9.53678C98.622 9.22993 98.3984 9.07651 97.9547 9.07651C97.3891 9.07651 96.9036 9.43225 96.4999 10.1437C96.0345 10.9766 95.8026 12.5209 95.8026 14.7768V20.8108C95.8026 21.0553 95.8877 21.207 96.0595 21.2677C96.2313 21.3284 96.7518 21.3689 97.621 21.3891C97.8429 21.4296 97.9547 21.5105 97.9547 21.6336C97.9547 21.7769 97.8229 21.8477 97.5609 21.8477H91.6819C91.3583 21.8477 91.1965 21.787 91.1965 21.6639C91.1965 21.5409 91.3283 21.4802 91.5902 21.4802H92.0139C92.7012 21.4802 93.105 21.3992 93.2268 21.234C93.2668 21.1514 93.2868 20.7721 93.2868 20.0943V11.6291C93.2868 10.5012 93.12 9.85037 92.7863 9.67503ZM72.6402 27.2006C73.4943 27.0843 74.4619 27.0236 75.5196 27.0236C76.0084 27.0236 76.3821 27.0321 76.644 27.0455C76.6857 27.0455 76.7808 27.0489 76.931 27.0557C77.1412 27.0658 77.323 27.0169 77.4715 26.909L77.5032 26.882C77.5649 26.8196 77.595 26.7303 77.6 26.6106C77.63 26.4892 77.5916 26.4066 77.5549 26.3594C77.5549 26.3594 77.3164 26.2312 77.2663 26.211C77.1629 26.1688 77.0678 26.1486 76.9777 26.1486L75.1943 26.1183L73.0606 26.1891C73.149 26.0711 73.3275 25.8502 73.6812 25.4405C73.9831 25.0746 74.195 24.8083 74.3368 24.6161C74.3985 24.5216 74.4236 24.4121 74.4085 24.2974C74.3902 24.176 74.3268 24.0749 74.225 24.0057L74.1783 23.9821C74.0032 23.9113 73.8647 23.9484 73.7813 23.9906L73.7262 24.0277C73.526 24.2097 73.2691 24.4441 73.1723 24.5436C72.6785 25.1455 72.3132 25.5973 72.078 25.9008C71.8678 26.2144 71.5708 26.3897 71.1704 26.4403C70.9402 26.4673 70.5231 26.5347 69.9125 26.6409C69.9192 26.5617 69.9225 26.4925 69.9225 26.4403C69.9225 25.8789 69.7591 25.3933 69.4354 25.0005C69.1168 24.6127 68.6647 24.3345 68.0908 24.1743C67.7171 24.0648 67.315 24.0074 66.898 24.0074C66.7278 24.0074 66.4959 24.0226 66.1789 24.0546C63.6748 24.4306 61.3776 25.5079 59.3523 27.2529C58.9553 27.5918 58.5766 28.02 58.2313 28.5224C57.951 28.9153 57.7541 29.2997 57.6457 29.6588C57.5489 29.9505 57.5006 30.2455 57.5006 30.5389C57.5006 31.1306 57.7124 31.6921 58.1362 32.2198C58.5099 32.6463 58.9469 32.9734 59.4341 33.1959L59.9329 33.4151C60.2132 33.55 60.6686 33.754 61.2909 34.0221C61.9949 34.3137 62.6138 34.629 63.121 34.9561C63.4213 35.1635 63.6315 35.3456 63.7499 35.5074C63.9368 35.7468 64.0285 35.9963 64.0285 36.2678C64.0285 36.669 63.8283 36.986 63.4246 37.2322C63.1193 37.4058 62.7623 37.5086 62.3636 37.5356L61.9115 37.5575C60.34 37.5575 58.9286 36.9371 57.7174 35.7131C57.6223 35.617 57.5356 35.5192 57.4622 35.4231C57.3754 35.3118 57.277 35.2006 57.1669 35.0893C56.9867 34.9072 56.7448 34.9038 56.563 35.0809C56.4929 35.1432 56.3328 35.3304 56.4862 35.6423L56.5013 35.6693C56.6881 35.9525 56.8416 36.1531 56.97 36.283C58.1996 37.6149 59.8261 38.3601 61.8147 38.4983L61.8403 38.4985L61.8694 38.499L61.9134 38.4999L61.9332 38.5C62.422 38.5 62.9091 38.4123 63.3796 38.2404C63.8951 38.0616 64.2871 37.7919 64.5457 37.4395C64.8043 37.0855 64.9344 36.691 64.9344 36.2678C64.9344 35.934 64.856 35.6035 64.6992 35.2865C64.5424 34.9713 64.3288 34.7083 64.0686 34.511C63.6465 34.1755 63.171 33.8754 62.6455 33.609L60.6903 32.766L60.2782 32.5688C59.7978 32.3192 59.4891 32.1557 59.374 32.0916C58.7217 31.6617 58.4048 31.161 58.4048 30.5608C58.4048 30.232 58.5065 29.8746 58.7067 29.4936C59.0003 28.9305 59.4324 28.3994 59.998 27.9155C61.461 26.6106 63.186 25.6917 65.1279 25.1825C65.5917 25.0544 66.1456 24.9752 66.7612 24.9465C67.3551 24.9465 67.8272 25.0224 68.1558 25.1674C68.4244 25.2972 68.633 25.4675 68.7764 25.6765C68.9182 25.8822 68.9866 26.1166 68.9866 26.3931C68.9866 26.5516 68.975 26.6089 68.9716 26.6224L68.9666 26.6561C68.9634 26.6876 68.9574 26.7206 68.9513 26.754C68.9479 26.7724 68.9446 26.791 68.9416 26.8095L68.8307 26.8294L68.7669 26.8409C68.6894 26.855 68.6103 26.8693 68.5279 26.8837L67.7621 27.0169C67.3317 27.0809 67.0197 27.1804 66.8095 27.317C66.6477 27.4131 66.6794 28.0318 67.0965 28.0318L67.1148 28.0319L67.1433 28.0321H67.1435H67.1438H67.144C67.2208 28.0329 67.3039 28.0337 67.4018 28.0183L67.8706 27.9273C68.1875 27.8582 68.4428 27.8076 68.6396 27.7739L68.6228 27.8124L68.6147 27.8312C68.6018 27.8612 68.5888 27.8914 68.5746 27.9222C67.9073 29.1547 67.0464 30.0988 66.0204 30.7243C65.7268 30.8963 65.4999 31.0497 65.3081 31.2099C65.2213 31.2975 65.1046 31.4358 65.1046 31.6078C65.1046 31.6769 65.1246 31.7477 65.168 31.8387C65.2063 31.9365 65.3164 32.122 65.6151 32.122C65.7569 32.122 65.8803 32.0832 65.9837 32.0057L67.27 31.0194C68.0224 30.3956 68.6497 29.6773 69.1351 28.8816C69.3754 28.4702 69.5622 28.0436 69.704 27.6019C70.1444 27.5311 70.5048 27.4771 70.7784 27.4417L70.9635 27.4215V27.4249C70.8801 27.5378 70.8484 27.5918 70.8301 27.6238L70.4397 28.2139C69.3804 29.8038 68.361 31.483 67.4084 33.201C67.1999 33.577 66.923 34.1266 66.5643 34.8836L66.0421 35.939C65.917 36.1548 65.8536 36.3689 65.8536 36.5763V36.6437C65.8536 36.7466 65.892 36.8461 65.9654 36.9354C66.0255 37.0079 66.0838 37.0568 66.1622 37.0956C66.204 37.1124 66.2573 37.1259 66.3207 37.1259C66.4158 37.1259 66.5309 37.0956 66.6627 36.9995L66.6878 36.9793C66.9764 36.7044 67.1148 36.3993 67.0948 36.0604C67.0831 35.9491 67.0948 35.8463 67.1265 35.7552C67.1682 35.6372 67.2316 35.4922 67.3117 35.3287C68.5229 32.9565 70.0894 30.3399 71.9795 27.5429C72.1013 27.344 72.3149 27.2276 72.6418 27.1922L72.6402 27.2006ZM91.0096 29.4784C90.8428 29.6706 90.5542 29.7009 90.3306 29.5795L90.3289 29.5779C90.1955 29.5054 90.1221 29.3503 90.1588 29.2019C90.1871 29.0872 90.2405 28.976 90.3189 28.8681C90.5058 28.6101 90.7343 28.5562 90.8912 28.5562C91.0129 28.5562 91.098 28.6405 91.1297 28.6725C91.2265 28.772 91.2465 28.8714 91.2465 28.9389L91.2432 28.9827C91.2115 29.1699 91.1331 29.3368 91.0096 29.4784ZM100.772 32.0208L100.742 31.9888L100.702 31.9702C100.679 31.9584 100.652 31.9433 100.622 31.9247C100.46 31.8269 100.322 31.8741 100.264 31.9365L99.8615 32.2754L99.3126 32.763C98.9208 33.111 98.6806 33.3243 98.5986 33.3999C97.9647 33.8737 97.2523 34.135 96.4682 34.1772L96.2847 34.1974C96.2397 34.1974 96.2163 34.189 96.2063 34.1839L96.2093 34.1789L96.218 34.1642C96.2209 34.1595 96.2242 34.1542 96.228 34.1485C96.2499 34.1182 96.2678 34.0952 96.2801 34.0794L96.2931 34.0625L96.3314 34.012C96.6668 33.4269 96.877 32.8537 96.9554 32.3074C96.9737 32.2282 96.9821 32.1254 96.9821 31.9939C96.9821 31.7747 96.947 31.5656 96.8786 31.3751C96.7518 31.016 96.4399 30.5861 95.6775 30.5861C95.1586 30.5861 94.7215 30.8137 94.3812 31.2621L94.3562 31.3009C94.3428 31.3296 94.3011 31.4021 94.186 31.5724C94.1093 31.6853 94.0259 31.7696 93.9375 31.8269C93.6805 31.9905 93.4653 32.1877 93.2802 32.4086C93.2118 32.4626 93.1484 32.5148 93.0966 32.5587C92.0139 33.464 91.0847 34.1215 90.3423 34.511C90.057 34.656 89.8018 34.7673 89.5866 34.8448C89.3814 34.919 89.1412 34.9628 88.8659 34.9763C88.6657 34.9932 88.5222 34.9628 88.4388 34.8836C88.3554 34.806 88.3137 34.6661 88.3137 34.4655C88.3137 34.1064 88.4238 33.7186 88.6457 33.2971C88.9293 32.6666 89.2746 32.0545 89.67 31.4813C89.8101 31.3346 89.8802 31.1846 89.8802 31.0329C89.8802 30.9469 89.8485 30.817 89.7 30.7058C89.4898 30.5355 89.3063 30.5996 89.2396 30.6333C89.1428 30.6822 89.0511 30.7715 88.9493 30.9131C88.6907 31.2841 88.4622 31.6516 88.257 32.0141C88.0968 32.1254 87.9517 32.2417 87.8299 32.353L87.1426 32.8908C86.5653 33.3578 86.1232 33.7001 85.8213 33.9142C85.3725 34.2682 84.8604 34.5565 84.3065 34.7656C83.9361 34.8903 83.6292 34.9527 83.4056 34.9544C82.9235 34.9274 82.8501 34.6998 82.8417 34.4503C82.8134 34.0052 82.8484 33.6141 82.9418 33.287C83.0319 32.9768 83.2221 32.6851 83.5124 32.4187C84.5601 31.4358 85.5477 30.3686 86.4469 29.2525C86.7305 28.9052 87.1793 28.2932 87.7882 27.4232C88.0384 27.027 88.1986 26.6527 88.2653 26.302C88.3054 26.0424 88.242 25.7996 88.0818 25.5973C87.92 25.3933 87.6981 25.2803 87.4061 25.2601C87.0491 25.2601 86.7155 25.3646 86.4118 25.5669C85.9648 25.8637 85.551 26.2565 85.189 26.7303C84.5601 27.4856 83.9561 28.4719 83.3923 29.6537C83.1971 30.0482 83.0002 30.4664 82.8067 30.8997C82.1778 30.4917 81.4637 30.5018 80.8348 30.8356C80.0774 31.2099 79.4251 31.6971 78.8746 32.2855L78.8742 32.2858C78.7692 32.3683 78.6643 32.4508 78.5593 32.5367C77.4732 33.4303 76.5423 34.0963 75.8033 34.5127C75.2494 34.7926 74.829 34.9426 74.5671 34.9544H74.1851C74.0232 34.9325 73.9098 34.8836 73.8514 34.8111C73.8064 34.7555 73.753 34.6358 73.753 34.3778C73.753 34.1435 73.828 33.8366 73.9732 33.4792C74.2301 32.9161 74.5704 32.3378 74.9858 31.7578C75.0676 31.6432 75.1677 31.4645 75.2928 31.2116C75.3795 31.0345 75.2578 30.8761 75.1877 30.7985C75.1793 30.785 75.1593 30.7732 75.1326 30.7614C74.9591 30.6822 74.7539 30.7209 74.6055 30.8423C74.5304 30.903 74.4603 30.9587 74.4503 30.9654L74.4169 30.9941L74.2518 31.161L73.6645 32.0259C72.9906 32.9532 72.2565 33.7237 71.4874 34.3154C71.1104 34.602 70.7534 34.774 70.4348 34.8246C70.3997 34.828 70.3513 34.828 70.2863 34.7757C70.2312 34.7319 70.2262 34.6981 70.2262 34.6695C70.2262 34.5279 70.2462 34.3761 70.2863 34.2126C70.3664 33.8585 70.5766 33.4303 70.9102 32.9397L71.7293 31.7544C71.7861 31.6685 71.8144 31.574 71.8144 31.4729C71.8144 31.3431 71.756 31.2284 71.6509 31.1526C71.4691 31.0059 71.2389 31.0227 71.052 31.2132C70.3163 32.0933 69.7975 32.9262 69.5155 33.6815C69.4021 33.9411 69.3287 34.2362 69.297 34.57C69.2786 34.9207 69.3754 35.2124 69.5823 35.4417C69.7908 35.6726 70.0594 35.7906 70.3814 35.7906C70.4765 35.7906 70.5899 35.7738 70.7234 35.7401C71.1438 35.6423 71.6076 35.3944 72.1381 34.9831C72.3182 34.8465 72.4751 34.7184 72.6052 34.602C72.6397 34.5717 72.6724 34.5426 72.7035 34.515C72.7536 34.4706 72.7992 34.43 72.8404 34.3947C72.8464 34.4391 72.853 34.4824 72.8595 34.5248L72.8596 34.5257L72.8598 34.5265L72.8599 34.5272C72.8641 34.5547 72.8682 34.5819 72.8721 34.6088L72.9188 34.9257C73.0273 35.4214 73.3526 35.7401 73.8397 35.8463C73.9648 35.8834 74.1317 35.9002 74.3485 35.9002C74.5304 35.9002 74.6588 35.8918 74.7389 35.8749C75.2377 35.7957 75.7716 35.59 76.3171 35.2697C76.7025 35.0606 77.1029 34.8128 77.5149 34.5279C77.4666 34.7521 77.4532 34.9848 77.4799 35.2275C77.4999 35.472 77.5917 35.6676 77.7518 35.8075C77.907 35.9441 78.1205 36.0132 78.3858 36.0132C78.5743 36.0132 78.7578 35.9828 78.9296 35.9222C79.0864 35.8665 79.27 35.7856 79.4985 35.6709C79.8739 35.4585 80.396 35.091 81.0533 34.5784L81.4888 34.2261C81.5605 34.1721 81.6539 34.0828 81.774 33.9529C81.8475 33.8737 81.8975 33.8535 81.9158 33.8535L81.921 33.8535C81.9256 33.8536 81.9298 33.8538 81.9334 33.854C81.944 33.8547 81.9504 33.8559 81.9536 33.8565L81.9559 33.8568V33.8737C81.9559 33.931 81.9492 33.9883 81.9375 34.049C81.9192 34.1401 81.9108 34.2311 81.9108 34.3205C81.9108 34.5059 81.9359 34.6931 81.9826 34.86C82.0893 35.3995 82.433 35.7418 82.9769 35.853C83.0886 35.8884 83.2304 35.9053 83.414 35.9053C83.5975 35.9053 83.7009 35.8969 83.766 35.88C84.2898 35.7873 84.8553 35.5748 85.4526 35.2511C86.0865 34.8937 86.7572 34.4368 87.4545 33.8889C87.3928 34.13 87.3594 34.3424 87.3594 34.5228C87.3594 34.9679 87.5096 35.3253 87.8065 35.59C88.0651 35.8193 88.3888 35.9356 88.7575 35.9356C88.8058 35.9356 88.8542 35.934 88.9043 35.9289C89.0711 35.9289 89.2913 35.8986 89.5716 35.8345C89.9536 35.7536 90.4307 35.5479 91.0296 35.2056C91.4717 34.9561 91.9539 34.6358 92.4727 34.2446L92.4669 34.2674L92.4668 34.2676C92.4555 34.3119 92.4443 34.3554 92.4343 34.4014L92.406 34.6981L92.4327 35.005C92.4861 35.3456 92.6212 35.6136 92.8331 35.7991C93.0466 35.9862 93.3269 36.0823 93.6672 36.0823C94.156 36.0823 94.6264 35.8733 95.0669 35.4619C95.3922 35.1652 95.6007 35.1028 95.7192 35.1028C95.8251 35.1028 95.8643 35.1176 95.8726 35.1207L95.8743 35.1213L95.921 35.1449H95.9728C96.3281 35.1635 96.7118 35.1314 97.1189 35.0522C98.4585 34.7453 99.6747 33.931 100.732 32.6345C100.771 32.5924 100.799 32.5384 100.826 32.4575C100.847 32.3901 100.859 32.3412 100.859 32.2923C100.859 32.181 100.829 32.095 100.767 32.0309L100.772 32.0208ZM85.858 27.2849C86.1499 26.9056 86.4719 26.5937 86.8172 26.356H86.8206L86.8373 26.3408C86.859 26.3256 86.9057 26.297 86.9774 26.2565C87.0441 26.2177 87.1125 26.1992 87.1876 26.1992C87.2076 26.1992 87.241 26.2042 87.2927 26.2262C87.2927 26.2283 87.2931 26.2312 87.2935 26.2347C87.2945 26.242 87.296 26.2519 87.296 26.2633C87.296 26.3256 87.2744 26.442 87.1709 26.6359L87.1592 26.6611C87.1075 26.7926 87.0358 26.9242 86.9424 27.059C86.1399 28.2341 85.1056 29.4649 83.8661 30.7226C84.4149 29.4228 85.0839 28.2679 85.8596 27.2849H85.858ZM82.1244 32.4103C81.4387 33.0442 80.8498 33.5618 80.3727 33.9496C79.9022 34.3306 79.3834 34.6695 78.8279 34.9578C78.581 35.0825 78.5009 35.0876 78.4959 35.0876C78.4942 35.0876 78.4608 35.0859 78.3858 35.0522C78.3858 35.0522 78.3658 35.0202 78.3658 34.9123C78.3658 34.8044 78.3858 34.7066 78.4358 34.6037C78.5459 34.3255 78.7144 34.0187 78.9396 33.695C79.3901 33.0408 79.9756 32.4693 80.6913 31.9922C80.9466 31.8017 81.1885 31.6718 81.417 31.6044C81.6606 31.5235 81.7857 31.5066 81.8474 31.5066C81.9609 31.5066 82.1978 31.5066 82.1978 32.1506C82.1978 32.2754 82.1694 32.3664 82.1227 32.4137L82.1244 32.4103ZM94.4129 34.7959C94.1243 34.9966 93.9975 35.0623 93.9675 35.0775C93.8607 35.1129 93.7673 35.1314 93.6922 35.1314C93.5554 35.1314 93.4954 35.0809 93.457 35.037C93.3953 34.9662 93.3636 34.8381 93.3636 34.6712C93.3769 34.103 93.5638 33.604 93.9425 33.1353C94.0125 33.6731 94.186 34.1013 94.458 34.4082C94.5707 34.5354 94.5896 34.6003 94.5937 34.6143L94.5942 34.6159C94.5943 34.6163 94.5944 34.6167 94.5945 34.6169C94.5946 34.6171 94.5947 34.6172 94.5948 34.6172C94.5948 34.6206 94.5731 34.683 94.4146 34.7959H94.4129ZM95.9411 32.6008C95.851 32.8672 95.7125 33.1589 95.539 33.4573C95.5056 33.5079 95.4639 33.5837 95.4139 33.6832C95.3822 33.7456 95.3471 33.8029 95.3071 33.8501C95.2938 33.8501 95.2771 33.8501 95.2454 33.8417C95.157 33.8214 95.1219 33.781 95.1002 33.7489C95.0452 33.663 94.9918 33.5382 94.9384 33.3814C94.8884 33.2297 94.8633 33.0982 94.8617 32.9717C94.8233 32.5148 94.9034 32.1439 95.1086 31.859C95.2704 31.6145 95.4573 31.5016 95.6992 31.5016C95.7842 31.5016 95.8526 31.5302 95.9177 31.5909C95.9844 31.6533 96.0195 31.7241 96.0278 31.8118C96.0545 32.0866 96.0245 32.353 95.9411 32.5991V32.6008ZM67.255 3.48079C66.9881 3.74043 66.6594 3.87024 66.269 3.87024C65.3448 3.87024 64.8827 3.40323 64.8827 2.46921C64.8827 1.53518 65.3448 1.06817 66.269 1.06817C67.1933 1.06817 67.6554 1.55541 67.6554 2.53159C67.6554 2.90419 67.5219 3.22115 67.255 3.48079ZM74.5304 3.87024C75.4546 3.87024 75.9167 3.40323 75.9167 2.46921C75.9167 1.53518 75.4546 1.06817 74.5304 1.06817C73.6062 1.06817 73.144 1.55541 73.144 2.53159C73.144 2.90587 73.2775 3.22115 73.5444 3.48079C73.8114 3.74043 74.14 3.87024 74.5304 3.87024ZM59.651 5.67929C59.0654 6.10415 58.2813 6.32839 57.3137 6.32839V6.3267C56.9934 6.3267 56.7332 6.06369 56.7332 5.73998C56.7332 5.41628 56.9934 5.15327 57.3137 5.15327C58.9636 5.15327 59.7327 4.39964 59.7327 2.7828C59.7327 2.46078 59.9913 2.19777 60.3116 2.19777C60.6319 2.19777 60.8922 2.45909 60.8922 2.7828C60.8922 3.48922 60.7704 4.09785 60.5335 4.60027C60.5407 4.60631 60.5476 4.6117 60.5544 4.61699C60.5667 4.62645 60.5784 4.63558 60.5902 4.64748C62.784 6.86621 65.7051 8.19812 69.035 8.49823C69.0398 8.49892 69.0443 8.50018 69.0488 8.50142C69.0552 8.50321 69.0615 8.50497 69.0684 8.50497C69.8391 8.56735 70.7283 8.537 71.3489 8.50834C71.379 8.5016 71.409 8.49485 71.439 8.49485C75.0208 8.35492 78.1939 7.06515 80.3726 4.86328C80.6429 4.59016 81.0817 4.59016 81.3519 4.86328C81.6222 5.13641 81.6222 5.57982 81.3519 5.85294C79.7921 7.43101 77.7851 8.58252 75.5079 9.2468C75.5146 9.38336 75.518 9.52667 75.518 9.68177V19.5211C75.518 20.3371 75.533 20.8142 75.563 20.9575C75.593 21.0991 75.6998 21.1919 75.8816 21.2323C76.1836 21.3133 76.629 21.3537 77.2146 21.3537C77.4982 21.3537 77.64 21.4346 77.64 21.5982C77.64 21.782 77.4682 21.873 77.1245 21.873C77.1445 21.873 76.9026 21.8528 76.3971 21.8123C75.7916 21.7718 75.2861 21.7516 74.8823 21.7516C74.8823 21.7516 71.5091 21.8747 71.3673 21.8747C71.1437 21.8747 71.0336 21.8005 71.0336 21.6488C71.0336 21.433 71.2355 21.3251 71.6392 21.3251C72.4066 21.3048 72.827 21.2475 72.8971 21.1565C72.9688 21.0637 73.0039 20.6406 73.0039 19.8852V10.604C72.9872 10.1842 72.9672 9.90769 72.9438 9.77113C72.6202 9.81159 72.2932 9.84531 71.9629 9.86723C71.9604 9.86785 71.9582 9.86869 71.956 9.86952C71.9523 9.87094 71.9487 9.87229 71.9445 9.87229C71.469 9.94984 69.6957 9.98356 68.7364 9.88072C68.7281 9.87903 68.7197 9.87735 68.7097 9.87735C68.7025 9.87654 68.6957 9.87495 68.6889 9.87314C68.6815 9.87119 68.6741 9.86898 68.6663 9.86723C68.1158 9.80822 67.577 9.72224 67.0481 9.61265C67.0031 9.63457 66.9697 9.66323 66.9564 9.70201C66.9263 9.79473 66.9013 10.0948 66.8813 10.6057V19.8869C66.8813 20.6422 66.918 21.0654 66.9881 21.1581C67.0598 21.2509 67.4785 21.3065 68.2459 21.3267C68.6497 21.3267 68.8515 21.4346 68.8515 21.6505C68.8515 21.8005 68.7397 21.8764 68.5179 21.8764C68.3777 21.8764 65.0028 21.7533 65.0028 21.7533C64.5974 21.7533 64.0936 21.7735 63.4863 21.814C62.9809 21.8545 62.739 21.8747 62.759 21.8747C62.4153 21.8747 62.2435 21.7836 62.2435 21.5999C62.2435 21.438 62.3853 21.3554 62.6672 21.3554C63.2528 21.3554 63.6965 21.3149 64.0002 21.234C64.182 21.1936 64.2888 21.1025 64.3188 20.9592C64.3488 20.8159 64.3639 20.3371 64.3639 19.5228V9.68346C64.3639 9.35301 64.3772 9.0664 64.4039 8.81856C62.6155 8.09697 61.0106 7.04155 59.651 5.67929Z" fill="black"/>
</svg>
