<?xml version="1.0" encoding="UTF-8"?><svg id="Capa_2" xmlns="http://www.w3.org/2000/svg" viewBox="0 0 103.7 27.77"><defs><style>.cls-1{stroke-width:0px;}</style></defs><g id="Firma"><path class="cls-1" d="m.14,21.38c.25-.5.5-.99.74-1.45,2.66-4.75,5.56-9.31,8.78-13.71,1.13-1.56,2.34-3.12,3.72-4.5.46-.5.99-.99,1.63-1.31.71-.35,1.35-.04,1.38.74.04.32-.04.64-.07.96-.28,1.88-.81,3.72-1.27,5.56-.5,1.95-.99,3.86-1.31,5.84-.04.28-.04.57,0,.81,0,.21.21.25.35.18.39-.07.64-.39.88-.67,1.13-1.17,2.23-2.37,3.33-3.58,1.35-1.52,2.69-3.12,4.07-4.64.53-.6,1.13-1.17,1.74-1.7.35-.35.78-.6,1.27-.74.35-.07.78.25.78.64-.04.21-.07.43-.14.64-.28.74-.57,1.52-.88,2.27-.96,2.16-1.95,4.32-2.9,6.52-.57,1.31-.99,2.62-1.24,4.04-.25,1.56-.28,3.01.85,4.29.14.11.11.32-.07.39-.11.04-.25.04-.32,0-.53-.32-.81-.81-1.03-1.42-.39-1.03-.32-2.12-.14-3.19.25-1.52.74-2.94,1.31-4.36.78-2.09,1.77-4.07,2.69-6.09.39-.81.81-1.63,1.06-2.8-.88.32-1.31.82-1.74,1.28-1.49,1.63-2.97,3.29-4.46,4.96-1.1,1.2-2.16,2.44-3.26,3.61-.42.42-.88.81-1.35,1.2-.28.25-.67.35-1.06.21-.39-.18-.5-.57-.46-.96.04-.5.07-.99.14-1.45.5-2.8,1.27-5.49,1.91-8.25.18-.67.35-1.35.46-2.05.11-.43.11-.85.11-1.28,0-.25-.25-.39-.5-.32-.25.11-.5.21-.71.39-.5.5-1.03.96-1.49,1.49-1.31,1.52-2.48,3.15-3.61,4.82-2.55,3.68-4.96,7.47-7.26,11.37-.39.67-.92,1.35-.89,2.23,0,.14-.07.28-.14.42-.21.46-.67.71-.89.5-.28-.28-.18-.6-.04-.89Z"/><path class="cls-1" d="m22.8,17.13c.04-.74.32-1.38.71-1.98.96-1.56,2.16-2.83,3.72-3.75,2.05-1.2,2.73-1.2,4.39.21.39-.11.53-.53.85-.71.14-.07.35-.18.42-.11.25.14.18.39.04.53-.67.92-1.31,1.88-1.77,2.9-.28.6-.57,1.2-.64,1.84-.11.99.42,1.56,1.42,1.49.81-.04,1.59-.32,2.34-.67,1.84-.85,3.44-2.02,4.89-3.43.32-.32.64-.6.96-.89.04-.04.21,0,.28.04.07.07.14.21.11.28-.04.14-.14.28-.25.43-1.67,1.63-3.47,3.12-5.6,4.11-.57.28-1.2.5-1.81.67-.46.11-.99.14-1.45.11-.96-.07-1.42-.64-1.56-1.56-.21-1.66.11-2.16-1.67-.6-.74.57-1.45,1.13-2.2,1.66-.5.35-1.03.6-1.63.74-.96.21-1.59-.35-1.56-1.31Zm2.76.04c1.88-1.2,3.47-2.76,5.03-4.32.14-.14.21-.35.28-.46-.04-.5-.5-.96-.99-1.06-.67-.11-1.31.04-1.88.39-1.74.99-3.08,2.34-4.07,4.07-.25.42-.39.89-.39,1.38.04.35.32.57.67.53.5-.04.92-.28,1.35-.53Z"/><path class="cls-1" d="m37.82,17.34c-.07-.04-.14-.18-.14-.25,0-.11,0-.25.04-.32.92-2.27,2.12-4.39,3.54-6.38.04-.04.07-.11.14-.11.11,0,.21-.07.28,0,.07.04.14.18.14.25l-.64,1.13c-.32.5-.67.99-.92,1.52-.18.28-.64.64-.21.96.25.18.53-.28.78-.5.96-.88,1.95-1.74,3.08-2.41.46-.28.96-.5,1.45-.67.67-.21,1.17.07,1.35.78.14.53.18,1.06.32,1.59.14.71.42.89,1.13.89.78-.04,1.45-.32,2.12-.67.35-.18.67-.39.99-.57.18-.07.35-.07.46.07s.07.28-.07.39c-1.1.88-2.34,1.38-3.65,1.52-.85,0-1.38-.35-1.63-1.17-.14-.57-.18-1.17-.32-1.74-.07-.42-.46-.6-.88-.39-.53.25-1.06.53-1.52.89-1.81,1.31-3.51,2.76-4.89,4.5-.21.25-.46.46-.67.71-.07.04-.21.04-.28-.04Z"/><path class="cls-1" d="m48.3,19.79c-.04-.35.11-.64.25-.92.74-1.45,1.42-2.94,2.2-4.36,1.52-2.69,3.15-5.35,4.85-7.9l.64-.96c.14-.21.39-.46.25-.71-.14-.32-.46-.21-.71-.18-1.1.14-2.16.32-3.22.5-.74.11-1.49.28-2.23.42-.21.04-.42,0-.64,0-.04-.04-.11-.07-.11-.11,0-.11,0-.25.07-.28.42-.28.92-.35,1.38-.42,1.81-.32,3.65-.67,5.45-.92.78-.11,1.31-.42,1.74-1.03.57-.74,1.17-1.45,1.74-2.12.25-.28.57-.53.85-.78.07-.04.21-.04.32,0,.18.11.14.32.07.42-.32.42-.67.85-1.03,1.28-.39.46-.78.88-1.13,1.38-.14.14,0,.46.21.46l3.26-.11v.04h3.26c.21,0,.39.11.6.18.04,0,0,.11,0,.18,0,.04,0,.11-.04.14-.32.21-.71.14-1.1.14-2.16-.07-4.32-.04-6.48.25-.6.07-1.03.25-1.35.74-2.73,4-5.28,8.08-7.51,12.4-.21.42-.42.85-.39,1.38.04.46-.18.82-.53,1.13-.11.07-.32.14-.42.11s-.25-.25-.25-.35Z"/><path class="cls-1" d="m54.07,16c.07-.5.21-.96.39-1.42.53-1.31,1.24-2.51,2.05-3.68.18-.21.35-.46.64-.25.28.21.04.5-.11.67-.67.96-1.24,1.95-1.7,2.97-.28.53-.5,1.06-.57,1.7-.11,1.13.35,1.59,1.31,1.52,1.03-.04,1.77-.39,2.51-.78,1.63-.85,3.08-1.98,4.5-3.15.42-.35.85-.67,1.27-.99.07-.04.21.04.28.11.07.04.07.21.04.28-.07.14-.18.25-.28.35-1.59,1.42-3.22,2.76-5.06,3.79-.71.39-1.45.78-2.23.96-.32.07-.64.14-.99.14-1.38.07-2.27-.85-2.05-2.23Zm4.53-7.54s-.11-.07-.11-.11c-.07-.5.35-1.03.81-1.03.04,0,.18.14.18.21-.07.46-.35.74-.74.96l-.14-.04Z"/><path class="cls-1" d="m61.33,17.31c.07-.21.14-.39.25-.6,1.17-2.34,2.69-4.43,4.25-6.52.28-.39,1.03-.07.85.25-.25.35-.53.67-.81.99-1.27,1.42-2.27,3.05-3.19,4.71-.25.42,0,.81.25.57.39-.32.74-.64,1.1-.99,1.28-1.24,2.51-2.51,3.93-3.65.6-.53,1.28-1.03,2.02-1.35.5-.18,1.06-.35,1.56,0,.5.42.39.99.25,1.52-.21.78-.5,1.52-.74,2.3-.21.67-.39,1.38-.5,2.05-.14.71.25.99.96.85.6-.14,1.13-.39,1.67-.71,1.03-.6,1.95-1.35,2.87-2.09l2.09-1.81c.18-.14.32-.28.57-.28.07,0,.11.04.14.04.14.07.18.18.11.28-.07.14-.14.28-.25.39-1.52,1.35-3.01,2.66-4.71,3.75-.71.46-1.49.89-2.34,1.06-.21.04-.43.07-.53.07-.82-.04-1.28-.42-1.31-1.1,0-.32.07-.64.14-.96.25-.96.57-1.88.81-2.8.14-.53.28-1.06.39-1.59.07-.32-.32-.57-.67-.5-.57.18-1.1.5-1.52.88-1.03.89-2.05,1.81-3.01,2.73-.89.81-1.7,1.66-2.55,2.51-.32.28-.64.57-.99.85-.28.18-.57.32-.92.14-.25-.11-.32-.53-.14-1.03Z"/><path class="cls-1" d="m76.74,15.43c.5-2.09,1.77-3.58,3.65-4.57.5-.28,1.03-.32,1.56-.25.96.11,1.42.96.92,1.77-.53.81-1.28,1.31-2.16,1.63-.67.25-1.38.32-2.09.35-.74.07-.96.25-1.1.92-.35,1.59.28,2.3,1.88,2.09.92-.14,1.81-.42,2.66-.78,2.05-.92,3.97-1.98,5.74-3.36.28-.21.6-.42.92-.64.07-.04.25.04.28.11.07.04.11.21.04.28-.11.14-.25.32-.42.46-2.27,1.7-4.68,3.15-7.33,4.14-.78.25-1.56.53-2.3.46-1.77,0-2.62-.99-2.23-2.62Zm2.58-1.81c.25,0,.6,0,.89-.11.81-.21,1.52-.57,1.98-1.31.14-.18.21-.39.11-.6-.14-.28-.39-.35-.67-.35-.18,0-.32,0-.5.07-.99.32-1.81.92-2.41,1.81-.14.18,0,.46.21.5h.39Z"/><path class="cls-1" d="m83.57,26.52c-.28-.74-.18-1.49.39-2.12.39-.46.85-.81,1.42-1.06.96-.46,1.95-.92,2.94-1.35,1.74-.82,3.44-1.59,5.14-2.44.96-.46,1.27-1.35.92-2.3-.14-.42-.43-.74-.92-.81-.74-.14-1.49-.14-2.16.32-.74.46-1.49.89-2.27,1.31-.18.11-.39.18-.6.18-.14,0-.32-.07-.39-.21-.07-.11-.11-.32,0-.42.14-.21.32-.43.53-.57.64-.42,1.35-.74,2.05-.96,1.7-.53,2.83-1.77,3.97-3.01.11-.14.18-.28.25-.43.46-.81.14-1.38-.78-1.45-.81-.07-1.63.18-2.37.42-.78.25-1.49.64-2.27.96-.18.07-.39.11-.6.14-.04,0-.14-.14-.14-.25,0-.07.07-.21.14-.25,1.52-.96,3.19-1.63,5.03-1.66.25-.04.53,0,.81.07.88.18,1.35.96.99,1.81-.21.64-.64,1.13-1.1,1.59-.39.42-.81.85-1.31,1.35,1.77,1.13,1.52.67,2.05,2.87.42.14.71-.14,1.03-.35,2.09-1.35,4.07-2.87,5.95-4.5l.74-.64c.18-.18.39-.28.57-.14.25.21.07.42-.07.57-.28.32-.6.6-.96.89-2.09,1.81-4.29,3.47-6.66,4.89-.71.42-1.17.92-1.49,1.66-.85,1.84-2.02,3.44-3.51,4.82-1.13,1.03-2.41,1.84-3.93,2.2-.6.14-1.2.21-1.77.11-.74-.11-1.38-.46-1.63-1.2Zm5.38-.46c1.98-1.24,3.4-2.97,4.5-4.99,0-.04.07-.11.04-.14,0-.11,0-.21-.07-.28-.07-.07-.18-.07-.28-.07-.14.04-.32.11-.46.18l-4.85,2.2c-.78.35-1.59.71-2.34,1.1-.5.25-.92.57-1.2,1.06-.39.74-.11,1.52.71,1.84.25.07.5.11.67.14,1.24-.07,2.34-.39,3.29-1.03Z"/></g></svg>